<svg width="24" height="24" viewBox="0 0 24 24" fill="none" xmlns="http://www.w3.org/2000/svg">
<g id="material-symbols:work-outline">
<path id="Vector" fill-rule="evenodd" clip-rule="evenodd" d="M11 3C10.2044 3 9.44129 3.31607 8.87868 3.87868C8.31607 4.44129 8 5.20435 8 6V7H5C4.20435 7 3.44129 7.31607 2.87868 7.87868C2.31607 8.44129 2 9.20435 2 10V18C2 18.7956 2.31607 19.5587 2.87868 20.1213C3.44129 20.6839 4.20435 21 5 21H19C19.7956 21 20.5587 20.6839 21.1213 20.1213C21.6839 19.5587 22 18.7956 22 18V10C22 9.20435 21.6839 8.44129 21.1213 7.87868C20.5587 7.31607 19.7956 7 19 7H16V6C16 5.20435 15.6839 4.44129 15.1213 3.87868C14.5587 3.31607 13.7956 3 13 3H11ZM14 7H10V6C10 5.73478 10.1054 5.48043 10.2929 5.29289C10.4804 5.10536 10.7348 5 11 5H13C13.2652 5 13.5196 5.10536 13.7071 5.29289C13.8946 5.48043 14 5.73478 14 6V7Z" fill="#003759"/>
</g>
</svg>
