<svg width="50" height="50" viewBox="0 0 50 50" fill="none" xmlns="http://www.w3.org/2000/svg">
<path d="M42.9765 33.3311C42.8144 33.1357 42.6552 32.9404 42.499 32.752C40.3505 30.1533 39.0507 28.585 39.0507 21.2285C39.0507 17.4199 38.1396 14.2949 36.3437 11.9512C35.0195 10.2197 33.2294 8.90625 30.8701 7.93555C30.8397 7.91866 30.8126 7.8965 30.79 7.87012C29.9414 5.02832 27.6191 3.125 24.9999 3.125C22.3808 3.125 20.0595 5.02832 19.2109 7.86719C19.1883 7.89264 19.1615 7.9141 19.1318 7.93066C13.6259 10.1973 10.9501 14.5459 10.9501 21.2256C10.9501 28.585 9.65229 30.1533 7.5019 32.749C7.34565 32.9375 7.18647 33.1289 7.02436 33.3281C6.60561 33.8331 6.3403 34.4475 6.25982 35.0986C6.17935 35.7497 6.28707 36.4102 6.57026 37.002C7.1728 38.2715 8.45698 39.0596 9.9228 39.0596H40.0878C41.5468 39.0596 42.8222 38.2725 43.4267 37.0088C43.7111 36.4169 43.8199 35.7558 43.7401 35.104C43.6603 34.4522 43.3953 33.8369 42.9765 33.3311ZM24.9999 46.875C26.4111 46.8739 27.7957 46.4908 29.0067 45.7665C30.2178 45.0421 31.2103 44.0035 31.8789 42.7607C31.9104 42.7012 31.9259 42.6345 31.924 42.5672C31.9221 42.4998 31.9028 42.4341 31.868 42.3764C31.8333 42.3187 31.7841 42.271 31.7254 42.2379C31.6668 42.2048 31.6005 42.1874 31.5331 42.1875H18.4687C18.4012 42.1873 18.3349 42.2045 18.2761 42.2375C18.2172 42.2706 18.168 42.3183 18.1331 42.376C18.0982 42.4337 18.0788 42.4995 18.0769 42.5669C18.0749 42.6343 18.0905 42.7011 18.122 42.7607C18.7905 44.0033 19.7828 45.0419 20.9937 45.7662C22.2046 46.4905 23.5889 46.8737 24.9999 46.875Z" fill="#003759"/>
</svg>
