<svg width="21" height="21" viewBox="0 0 21 21" fill="none" xmlns="http://www.w3.org/2000/svg">
<path d="M10.5 1.9165C9.48334 1.9165 8.50832 2.32037 7.78943 3.03926C7.07054 3.75815 6.66667 4.73317 6.66667 5.74984C6.66667 6.7665 7.07054 7.74152 7.78943 8.46041C8.50832 9.1793 9.48334 9.58317 10.5 9.58317C11.5167 9.58317 12.4917 9.1793 13.2106 8.46041C13.9295 7.74152 14.3333 6.7665 14.3333 5.74984C14.3333 4.73317 13.9295 3.75815 13.2106 3.03926C12.4917 2.32037 11.5167 1.9165 10.5 1.9165ZM15.2917 11.4998H5.70834C4.94584 11.4998 4.21457 11.8027 3.6754 12.3419C3.13624 12.8811 2.83334 13.6123 2.83334 14.3748C2.83334 16.5138 3.71309 18.2273 5.15634 19.3869C6.57659 20.5273 8.48175 21.0832 10.5 21.0832C12.5183 21.0832 14.4234 20.5273 15.8437 19.3869C17.285 18.2273 18.1667 16.5138 18.1667 14.3748C18.1667 13.6123 17.8638 12.8811 17.3246 12.3419C16.7854 11.8027 16.0542 11.4998 15.2917 11.4998Z" fill="#003759"/>
</svg>
