<svg width="25" height="24" viewBox="0 0 25 24" fill="none" xmlns="http://www.w3.org/2000/svg">
<path d="M20.1258 21L13.9412 14.7C13.4504 15.1 12.8859 15.4167 12.2478 15.65C11.6097 15.8833 10.9307 16 10.2108 16C8.42739 16 6.91805 15.3708 5.68277 14.1125C4.44748 12.8542 3.82983 11.3167 3.82983 9.5C3.82983 7.68333 4.44748 6.14583 5.68277 4.8875C6.91805 3.62917 8.42739 3 10.2108 3C11.9942 3 13.5035 3.62917 14.7388 4.8875C15.9741 6.14583 16.5917 7.68333 16.5917 9.5C16.5917 10.2333 16.4772 10.925 16.2482 11.575C16.0191 12.225 15.7082 12.8 15.3156 13.3L21.5002 19.6L20.1258 21ZM10.2108 14C11.4379 14 12.4809 13.5625 13.3399 12.6875C14.1989 11.8125 14.6284 10.75 14.6284 9.5C14.6284 8.25 14.1989 7.1875 13.3399 6.3125C12.4809 5.4375 11.4379 5 10.2108 5C8.98368 5 7.94064 5.4375 7.08167 6.3125C6.22269 7.1875 5.7932 8.25 5.7932 9.5C5.7932 10.75 6.22269 11.8125 7.08167 12.6875C7.94064 13.5625 8.98368 14 10.2108 14Z" fill="#003759"/>
</svg>
