<svg width="27" height="27" viewBox="0 0 27 27" fill="none" xmlns="http://www.w3.org/2000/svg">
<path d="M23.6245 23.6252L18.7386 18.7394M18.7386 18.7394C19.5744 17.9036 20.2373 16.9114 20.6896 15.8195C21.1419 14.7275 21.3747 13.5572 21.3747 12.3752C21.3747 11.1933 21.1419 10.023 20.6896 8.93099C20.2373 7.83903 19.5744 6.84686 18.7386 6.01111C17.9029 5.17536 16.9107 4.51241 15.8187 4.0601C14.7268 3.6078 13.5564 3.375 12.3745 3.375C11.1926 3.375 10.0222 3.6078 8.93026 4.0601C7.8383 4.51241 6.84612 5.17536 6.01037 6.01111C4.3225 7.69898 3.37427 9.98822 3.37427 12.3752C3.37427 14.7622 4.3225 17.0515 6.01037 18.7394C7.69825 20.4272 9.98749 21.3755 12.3745 21.3755C14.7615 21.3755 17.0508 20.4272 18.7386 18.7394Z" stroke="black" stroke-opacity="0.4" stroke-width="2" stroke-linecap="round" stroke-linejoin="round"/>
</svg>
