<svg width="1235" height="1257" viewBox="0 0 1235 1257" fill="none" xmlns="http://www.w3.org/2000/svg">
<path fill-rule="evenodd" clip-rule="evenodd" d="M824.057 999.107C1050.89 900.983 1155.23 637.552 1057.11 410.719C1004.65 289.454 755.5 516.581 639.404 477.551C538.334 443.572 574.288 132.002 468.719 177.669C241.885 275.793 137.545 539.224 235.669 766.057C333.793 992.891 597.224 1097.23 824.057 999.107Z" fill="#005E99"/>
<path fill-rule="evenodd" clip-rule="evenodd" d="M766.057 1079.11C992.891 980.982 1097.23 717.552 999.107 490.718C946.65 369.453 697.5 596.581 581.404 557.55C480.334 523.572 516.288 212.001 410.719 257.669C183.885 355.793 79.5453 619.223 177.669 846.057C275.793 1072.89 539.224 1177.23 766.057 1079.11Z" fill="#004773"/>
</svg>
