<svg width="1440" height="606" viewBox="0 0 1440 606" fill="none" xmlns="http://www.w3.org/2000/svg">
<path fill-rule="evenodd" clip-rule="evenodd" d="M1440 606L1392.13 592C1344.27 578 1247.53 549 1151.8 527C1056.07 505 960.332 491 863.601 469C767.867 448 672.133 419 576.399 440C479.668 462 383.934 534 288.199 563C192.465 592 95.734 578 47.867 570L-2.43187e-05 563V260H47.867C95.734 260 192.465 260 288.199 260C383.934 260 479.668 260 576.399 260C672.133 260 767.867 260 863.601 260C960.332 260 1056.07 260 1151.8 260C1247.53 260 1344.27 260 1392.13 260H1440V606Z" fill="url(#paint0_linear_279_1215)"/>
<rect width="1440" height="260" transform="matrix(-1 0 0 1 1440 0)" fill="url(#paint1_linear_279_1215)"/>
<defs>
<linearGradient id="paint0_linear_279_1215" x1="1440" y1="433" x2="0" y2="433" gradientUnits="userSpaceOnUse">
<stop stop-color="#003759"/>
<stop offset="1" stop-color="#0076BF"/>
</linearGradient>
<linearGradient id="paint1_linear_279_1215" x1="0" y1="130" x2="1440" y2="130" gradientUnits="userSpaceOnUse">
<stop stop-color="#003759"/>
<stop offset="1" stop-color="#0076BF"/>
</linearGradient>
</defs>
</svg>
