<svg width="16" height="9" viewBox="0 0 16 9" fill="none" xmlns="http://www.w3.org/2000/svg">
<path fill-rule="evenodd" clip-rule="evenodd" d="M7.13511 8.6564C7.36047 8.87641 7.66609 9 7.98474 9C8.3034 9 8.60902 8.87641 8.83438 8.6564L15.6326 2.01766C15.7474 1.90941 15.839 1.77991 15.9019 1.63673C15.9649 1.49356 15.9981 1.33956 15.9995 1.18374C16.0009 1.02792 15.9704 0.873388 15.91 0.729164C15.8496 0.584939 15.7604 0.45391 15.6475 0.343723C15.5347 0.233536 15.4005 0.146396 15.2528 0.0873895C15.1051 0.0283827 14.9469 -0.00130975 14.7873 4.43096e-05C14.6278 0.00139836 14.4701 0.0337721 14.3235 0.0952764C14.1768 0.156781 14.0442 0.246184 13.9334 0.358269L7.98474 6.16731L2.03612 0.358269C1.80947 0.144498 1.5059 0.0262117 1.19081 0.0288856C0.875718 0.0315594 0.574307 0.15498 0.351494 0.372564C0.128681 0.590149 0.00229522 0.884489 -0.000442852 1.19219C-0.00318093 1.49989 0.117948 1.79633 0.336855 2.01766L7.13511 8.6564Z" fill="white"/>
</svg>
